<svg width="736" height="736" viewBox="0 0 736 736" fill="none" xmlns="http://www.w3.org/2000/svg">
<path fill-rule="evenodd" clip-rule="evenodd" d="M0 312.305L4.52615 307.778L6.78923 303.252H9.05231V296.463L13.5785 294.2V294.2V289.674V287.411L6.78923 280.622L4.52615 273.832L9.05231 264.78L11.3154 255.728L15.8415 248.938L18.1046 246.675L22.6308 242.149L27.1569 237.623V235.36L24.8938 230.834L18.1046 228.571V226.308V219.518L20.3677 217.255V214.992V212.729V205.94V203.677H27.1569L31.6831 201.414H33.9462V199.151L38.4723 190.098L36.2092 187.835L42.9985 181.046V174.257V169.731L36.2092 165.205L29.42 156.152L31.6831 153.889L33.9462 149.363L36.2092 147.1L38.4723 144.837V142.574L42.9985 140.311V140.311L45.2615 138.048L49.7877 133.522V135.785L52.0508 133.522H56.5769L58.84 131.258L61.1031 128.995L67.8923 126.732V119.943L70.1554 113.154H79.2077H83.7338V99.5754L85.9969 90.5231L81.4708 83.7338H83.7338L81.4708 79.2077L76.9446 74.6815V70.1554L81.4708 72.4185L88.26 70.1554L92.7862 67.8923L104.102 79.2077L108.628 83.7338L113.154 85.9969V79.2077H115.417H117.68L119.943 76.9446L117.68 72.4185H119.943L117.68 70.1554H119.943L117.68 67.8923L119.943 65.6292H122.206H124.469H131.258V65.6292L126.732 61.1031H119.943L110.891 54.3138L113.154 49.7877L101.838 45.2615L88.26 38.4723L128.995 31.6831H167.468V6.78923L205.94 9.05231H214.992H260.254H262.517L280.622 11.3154H282.885V27.1569L285.148 36.2092H294.2H305.515L310.042 40.7354L307.778 42.9985V45.2615L312.305 42.9985L316.831 45.2615V49.7877L319.094 58.84V65.6292L321.357 70.1554L323.62 74.6815L325.883 79.2077L332.672 85.9969L339.462 90.5231L350.777 95.0492L366.618 106.365L368.882 108.628L371.145 119.943V126.732L380.197 131.258V133.522H389.249H391.512H396.038L400.565 138.048L402.828 142.574V144.837H409.617H411.88V140.311L414.143 135.785L409.617 128.995L407.354 126.732L402.828 119.943L398.302 117.68H396.038V113.154V110.891L393.775 108.628V106.365L398.302 101.838V97.3123L407.354 99.5754L416.406 101.838H418.669L445.826 106.365H468.457L486.562 108.628H515.982L520.508 110.891L522.771 104.102V99.5754L525.034 95.0492L527.297 92.7862L529.56 85.9969L531.823 79.2077V76.9446L540.875 70.1554L543.138 72.4185L547.665 70.1554L554.454 67.8923L572.558 56.5769L574.822 58.84V65.6292V70.1554L595.189 67.8923L590.663 36.2092V33.9462H588.4V31.6831L592.926 22.6308L604.242 9.05231L601.978 6.78923L599.715 0V0H606.505L642.714 13.5785H644.977H658.555L665.345 29.42L681.186 24.8938L678.923 22.6308L681.186 20.3677L685.712 24.8938H687.975L690.238 31.6831L699.291 38.4723L717.395 47.5246H715.132L721.922 52.0508L719.658 54.3138V58.84V58.84V63.3662H721.922H724.185L726.448 92.7862L728.711 99.5754L730.974 104.102L726.448 106.365L721.922 108.628L710.606 110.891L703.817 115.417L699.291 117.68H694.765L692.502 119.943L681.186 124.469L667.608 131.258H665.345L658.555 135.785H654.029L651.766 138.048L644.977 140.311H647.24L642.714 142.574L644.977 144.837L654.029 151.626V156.152V156.152V158.415L651.766 160.678V158.415H647.24L649.503 160.678L644.977 162.942L638.188 167.468L640.451 171.994H633.662L626.872 176.52V178.783H624.609V181.046L626.872 187.835L631.398 194.625L633.662 192.362H635.925L638.188 201.414L640.451 199.151L644.977 194.625L647.24 199.151L651.766 208.203L647.24 210.466V210.466L638.188 208.203L633.662 219.518L638.188 226.308V228.571L629.135 237.623L640.451 235.36L644.977 237.623L640.451 239.886L642.714 242.149L640.451 246.675L644.977 251.202L640.451 253.465L629.135 257.991L642.714 269.306L649.503 276.095L654.029 278.358L660.818 282.885L672.134 287.411V296.463H674.397L681.186 300.989L687.975 307.778L692.502 305.515L697.028 312.305V314.568L703.817 319.094L701.554 323.62V323.62L703.817 325.883L701.554 330.409V332.672L697.028 337.198V339.462L699.291 341.725H701.554L710.606 350.777L712.869 353.04V350.777L719.658 353.04L726.448 355.303H728.711L733.237 362.092H735.5V364.355V368.882L733.237 366.618L730.974 368.882V368.882V371.145H728.711V375.671L724.185 382.46L721.922 384.723L717.395 386.986L703.817 384.723H699.291L690.238 375.671L676.66 380.197L672.134 382.46H669.871V389.249L672.134 391.512V393.775H676.66V396.038V400.565L674.397 405.091H672.134L667.608 407.354V409.617L672.134 411.88L669.871 414.143H672.134L669.871 416.406L667.608 423.195H669.871L674.397 425.458L672.134 429.985L649.503 425.458H647.24L633.662 429.985L629.135 427.722L615.557 423.195L611.031 418.669L613.294 416.406L611.031 414.143L608.768 411.88L606.505 409.617L604.242 407.354L599.715 405.091H597.452V407.354L595.189 409.617V411.88L590.663 414.143L592.926 416.406V418.669V420.932V423.195L590.663 425.458L595.189 429.985V432.248L592.926 434.511H588.4V436.774H586.137V439.037L588.4 441.3H586.137L588.4 445.826L592.926 452.615L595.189 457.142L592.926 459.405V461.668L590.663 463.931L572.558 475.246V470.72H570.295L556.717 463.931H552.191H547.665L545.402 461.668V457.142V452.615H540.875H536.349L527.297 454.878L515.982 457.142H511.455L509.192 443.563L497.877 445.826L486.562 448.089L477.509 450.352V452.615L472.983 450.352L468.457 454.878L472.983 459.405L482.035 470.72L484.298 472.983H472.983L466.194 475.246L470.72 484.298L472.983 488.825L470.72 491.088V491.088L468.457 493.351L475.246 504.666L479.772 511.455L482.035 515.982V520.508L484.298 529.56L488.825 534.086L491.088 540.875L497.877 547.665L504.666 556.717L506.929 563.506L511.455 570.295V574.822V583.874L509.192 592.926V599.715L504.666 604.242H491.088H484.298H466.194L463.931 608.768L466.194 611.031V611.031V615.557H468.457H470.72V620.083L472.983 622.346V631.398L475.246 635.925H479.772L486.562 638.188L484.298 642.714V649.503L488.825 654.029L493.351 660.818V665.345L495.614 669.871L502.403 676.66L506.929 681.186L509.192 687.975L497.877 692.502L506.929 710.606L445.826 735.5H443.563L441.3 717.395V706.08V701.554L439.037 685.712L436.774 672.134L434.511 669.871L423.195 644.977L400.565 647.24H393.775L391.512 640.451L396.038 638.188V629.135V624.609L389.249 622.346L386.986 617.82H384.723L380.197 615.557L382.46 611.031L384.723 608.768L389.249 599.715L386.986 592.926V583.874L371.145 586.137L362.092 583.874L368.882 574.822V572.558L375.671 565.769L368.882 561.243V552.191V543.138V536.349L371.145 534.086L359.829 529.56L350.777 527.297L348.514 525.034L341.725 518.245L339.462 515.982L323.62 525.034L314.568 513.718V511.455L323.62 506.929L321.357 504.666L325.883 502.403H321.357L319.094 500.14L316.831 497.877H312.305H310.042V500.14L305.515 502.403H298.726L296.463 497.877V495.614H298.726L300.989 493.351V488.825H296.463V484.298H294.2L296.463 482.035L294.2 472.983V466.194L289.674 463.931V461.668L291.937 459.405L289.674 454.878L287.411 452.615L289.674 450.352L276.095 448.089L271.569 450.352V454.878L269.306 459.405H262.517L253.465 457.142L251.202 454.878V450.352L248.938 448.089V443.563L251.202 434.511L244.412 429.985L242.149 427.722L246.675 420.932L253.465 411.88L257.991 407.354L239.886 386.986L237.623 389.249L230.834 384.723V382.46L233.097 380.197H228.571L226.308 377.934H228.571L226.308 375.671L219.518 371.145L210.466 366.618L196.888 359.829L192.362 355.303L167.468 332.672L165.205 330.409L156.152 307.778L153.889 303.252L151.626 282.885H147.1H144.837L142.574 276.095H140.311V273.832V271.569L138.048 269.306L133.522 264.78V269.306V271.569L135.785 278.358V282.885L122.206 285.148H115.417L108.628 287.411L106.365 289.674H97.3123L79.2077 285.148L56.5769 278.358V287.411L54.3138 294.2L47.5246 310.042L52.0508 312.305L40.7354 321.357L29.42 310.042H24.8938L22.6308 312.305V314.568L18.1046 321.357L11.3154 325.883L9.05231 316.831L0 312.305ZM101.838 192.362L104.102 194.625V194.625L106.365 203.677L113.154 205.94V205.94L124.469 210.466L126.732 205.94L128.995 208.203L133.522 203.677V203.677L135.785 201.414V201.414V203.677H140.311V199.151L138.048 196.888L135.785 192.362V192.362L138.048 187.835L135.785 178.783H133.522V181.046H131.258V183.309H128.995V181.046V181.046V183.309H126.732V187.835H122.206V190.098H110.891L104.102 185.572V185.572L101.838 187.835V192.362Z" fill="url(#paint0_linear_734_5055)"/>
<circle cx="252" cy="246" r="9.5" stroke="#BF9742"/>
<circle cx="252" cy="246" r="4" fill="#BF9742"/>
<defs>
<linearGradient id="paint0_linear_734_5055" x1="-214.18" y1="718.527" x2="1885.84" y2="-614.846" gradientUnits="userSpaceOnUse">
<stop stop-color="#E2DDD8"/>
<stop offset="1" stop-color="white"/>
</linearGradient>
</defs>
</svg>
